<svg width="25" height="25" viewBox="0 0 25 25" fill="none" xmlns="http://www.w3.org/2000/svg">
<path fill-rule="evenodd" clip-rule="evenodd" d="M21.7815 1.47718C21.3196 1.47718 20.8767 1.66064 20.5502 1.9872L9.58885 12.9485L8.76797 16.232L12.0515 15.4112L23.0128 4.44984C23.3394 4.12327 23.5228 3.68035 23.5228 3.21852C23.5228 2.75669 23.3394 2.31377 23.0128 1.9872C22.6862 1.66064 22.2433 1.47718 21.7815 1.47718ZM19.5056 0.942683C20.1092 0.339093 20.9279 0 21.7815 0C22.6351 0 23.4537 0.339093 24.0573 0.942683C24.6609 1.54627 25 2.36491 25 3.21852C25 4.07213 24.6609 4.89077 24.0573 5.49436L12.9513 16.6003C12.8567 16.695 12.7381 16.7622 12.6082 16.7946L7.93202 17.9637C7.68033 18.0266 7.41408 17.9529 7.23063 17.7694C7.04718 17.586 6.97343 17.3197 7.03635 17.068L8.2054 12.3918C8.23787 12.2619 8.30502 12.1433 8.39968 12.0487L19.5056 0.942683ZM0.90114 3.38104C1.47813 2.80405 2.2607 2.4799 3.07669 2.4799H11.26C11.6679 2.4799 11.9986 2.81057 11.9986 3.21848C11.9986 3.62639 11.6679 3.95707 11.26 3.95707H3.07669C2.65247 3.95707 2.24563 4.12559 1.94566 4.42556C1.64569 4.72553 1.47717 5.13237 1.47717 5.55659V21.9233C1.47717 22.3475 1.64569 22.7544 1.94566 23.0543C2.24563 23.3543 2.65247 23.5228 3.07669 23.5228H19.4434C19.8676 23.5228 20.2744 23.3543 20.5744 23.0543C20.8744 22.7544 21.0429 22.3475 21.0429 21.9233V13.7399C21.0429 13.332 21.3736 13.0014 21.7815 13.0014C22.1894 13.0014 22.5201 13.332 22.5201 13.7399V21.9233C22.5201 22.7393 22.1959 23.5219 21.6189 24.0989C21.0419 24.6758 20.2594 25 19.4434 25H3.07669C2.2607 25 1.47813 24.6758 0.90114 24.0989C0.32415 23.5219 0 22.7393 0 21.9233V5.55659C0 4.7406 0.32415 3.95803 0.90114 3.38104Z" fill="#0F4C81"/>
</svg>
